<svg width="60" height="19" viewBox="0 0 60 19" fill="none" xmlns="http://www.w3.org/2000/svg">
<path d="M53.2365 0.917969H41.9265C42.5853 4.63713 46.2089 8.13752 50.162 8.13752H59.1661C59.2759 7.80936 59.2759 7.26242 59.2759 6.93426C59.2759 3.65264 56.5307 0.917969 53.2365 0.917969Z" fill="url(#paint0_linear_5970_787)"/>
<path d="M43.3734 8.85938V18.2448H49.0674V13.2694H54.0782C56.8113 13.2694 59.2028 11.3471 59.9999 8.85938H43.3734Z" fill="#4FAD50"/>
<path d="M23.8548 0.917969V18.2449H28.7482C28.7482 18.2449 29.9715 18.2449 30.6388 17.0072C33.9752 10.369 34.9762 8.3438 34.9762 8.3438H35.6435V18.2449H41.2042V0.917969H36.3107C36.3107 0.917969 35.0874 1.03049 34.4201 2.15561C31.6397 7.89375 30.0828 10.8191 30.0828 10.8191H29.4155V0.917969H23.8548Z" fill="#4FAD50"/>
<path d="M0 18.2449V0.917969H5.57549C5.57549 0.917969 7.13664 0.917965 8.02872 3.39324C10.2589 9.91897 10.4819 10.8191 10.4819 10.8191C10.4819 10.8191 10.928 9.24389 12.9351 3.39324C13.8272 0.917965 15.3884 0.917969 15.3884 0.917969H20.9639V18.2449H15.3884V8.90636H14.7193L11.597 18.2449H9.14381L6.02155 8.90636H5.35249V18.2449H0Z" fill="#4FAD50"/>
<defs>
<linearGradient id="paint0_linear_5970_787" x1="-0.0675949" y1="9.70561" x2="59.8655" y2="9.70561" gradientUnits="userSpaceOnUse">
<stop stop-color="#27B1E6"/>
<stop offset="1" stop-color="#148ACA"/>
</linearGradient>
</defs>
</svg>
